<?xml version="1.0" encoding="UTF-8" standalone="no"?>
<!-- Created with Vectornator (http://vectornator.io/) -->

<svg
   height="100%"
   stroke-miterlimit="10"
   style="fill-rule:nonzero;clip-rule:evenodd;stroke-linecap:round;stroke-linejoin:round;"
   version="1.1"
   viewBox="0 0 3370.82 2384.24"
   width="100%"
   xml:space="preserve"
   id="svg806"
   sodipodi:docname="contractible_space.svg"
   inkscape:version="1.2.1 (9c6d41e410, 2022-07-14, custom)"
   xmlns:inkscape="http://www.inkscape.org/namespaces/inkscape"
   xmlns:sodipodi="http://sodipodi.sourceforge.net/DTD/sodipodi-0.dtd"
   xmlns="http://www.w3.org/2000/svg"
   xmlns:svg="http://www.w3.org/2000/svg"><sodipodi:namedview
   id="namedview808"
   pagecolor="#ffffff"
   bordercolor="#000000"
   borderopacity="0.25"
   inkscape:showpageshadow="2"
   inkscape:pageopacity="0.0"
   inkscape:pagecheckerboard="0"
   inkscape:deskcolor="#d1d1d1"
   showgrid="false"
   inkscape:zoom="0.40924347"
   inkscape:cx="1813.1016"
   inkscape:cy="1194.8877"
   inkscape:window-width="1888"
   inkscape:window-height="1008"
   inkscape:window-x="13"
   inkscape:window-y="53"
   inkscape:window-maximized="1"
   inkscape:current-layer="svg806" />
<defs
   id="defs764"><marker
   style="overflow:visible"
   id="marker1801"
   refX="0"
   refY="0"
   orient="auto-start-reverse"
   inkscape:stockid="Arrow5"
   markerWidth="5.166595"
   markerHeight="5.6665726"
   viewBox="0 0 5.166595 5.6665725"
   inkscape:isstock="true"
   inkscape:collect="always"
   preserveAspectRatio="xMidYMid"><path
     transform="scale(0.5)"
     style="fill:context-stroke;fill-rule:evenodd;stroke:context-stroke;stroke-width:1pt"
     d="m 6,0 c -3,1 -7,3 -9,5 0,0 0,-4 2,-5 -2,-1 -2,-5 -2,-5 2,2 6,4 9,5 z"
     id="path1799" /></marker><marker
   style="overflow:visible"
   id="marker1557"
   refX="0"
   refY="0"
   orient="auto-start-reverse"
   inkscape:stockid="Arrow5"
   markerWidth="5.166595"
   markerHeight="5.6665726"
   viewBox="0 0 5.166595 5.6665725"
   inkscape:isstock="true"
   inkscape:collect="always"
   preserveAspectRatio="xMidYMid"><path
     transform="scale(0.5)"
     style="fill:context-stroke;fill-rule:evenodd;stroke:context-stroke;stroke-width:1pt"
     d="m 6,0 c -3,1 -7,3 -9,5 0,0 0,-4 2,-5 -2,-1 -2,-5 -2,-5 2,2 6,4 9,5 z"
     id="path1555" /></marker><marker
   style="overflow:visible"
   id="marker1511"
   refX="0"
   refY="0"
   orient="auto-start-reverse"
   inkscape:stockid="Arrow5"
   markerWidth="5.166595"
   markerHeight="5.6665726"
   viewBox="0 0 5.166595 5.6665725"
   inkscape:isstock="true"
   inkscape:collect="always"
   preserveAspectRatio="xMidYMid"><path
     transform="scale(0.5)"
     style="fill:context-stroke;fill-rule:evenodd;stroke:context-stroke;stroke-width:1pt"
     d="m 6,0 c -3,1 -7,3 -9,5 0,0 0,-4 2,-5 -2,-1 -2,-5 -2,-5 2,2 6,4 9,5 z"
     id="path1509" /></marker><marker
   style="overflow:visible"
   id="Arrow5"
   refX="0"
   refY="0"
   orient="auto-start-reverse"
   inkscape:stockid="Arrow5"
   markerWidth="5.166595"
   markerHeight="5.6665726"
   viewBox="0 0 5.166595 5.6665725"
   inkscape:isstock="true"
   inkscape:collect="always"
   preserveAspectRatio="xMidYMid"><path
     transform="scale(0.5)"
     style="fill:context-stroke;fill-rule:evenodd;stroke:context-stroke;stroke-width:1pt"
     d="m 6,0 c -3,1 -7,3 -9,5 0,0 0,-4 2,-5 -2,-1 -2,-5 -2,-5 2,2 6,4 9,5 z"
     id="path8893" /></marker>










<clipPath
   clipPathUnits="userSpaceOnUse"
   id="clipPath990"><g
     id="g994"
     transform="translate(-244.07525,-85.751351)"><rect
       height="2384.24"
       width="3370.8201"
       x="244.07526"
       y="85.75135"
       id="rect992" /></g></clipPath><clipPath
   clipPathUnits="userSpaceOnUse"
   id="clipPath996"><g
     id="g1000"
     transform="translate(-244.07525,-85.751351)"><rect
       height="2384.24"
       width="3370.8201"
       x="244.07526"
       y="85.75135"
       id="rect998" /></g></clipPath><clipPath
   clipPathUnits="userSpaceOnUse"
   id="clipPath1002"><g
     id="g1006"
     transform="translate(-244.07525,-85.751351)"><rect
       height="2384.24"
       width="3370.8201"
       x="244.07526"
       y="85.75135"
       id="rect1004" /></g></clipPath><clipPath
   clipPathUnits="userSpaceOnUse"
   id="clipPath1008"><g
     id="g1012"
     transform="translate(-244.07525,-85.751351)"><rect
       height="2384.24"
       width="3370.8201"
       x="244.07526"
       y="85.75135"
       id="rect1010" /></g></clipPath><clipPath
   clipPathUnits="userSpaceOnUse"
   id="clipPath1014"><g
     id="g1018"><rect
       height="2384.24"
       width="3370.8201"
       x="244.07526"
       y="85.75135"
       id="rect1016" /></g></clipPath><clipPath
   clipPathUnits="userSpaceOnUse"
   id="clipPath1020"><g
     id="g1024"><rect
       height="2384.24"
       width="3370.8201"
       x="244.07526"
       y="85.75135"
       id="rect1022" /></g></clipPath><clipPath
   clipPathUnits="userSpaceOnUse"
   id="clipPath1026"><g
     id="g1030"><rect
       height="2384.24"
       width="3370.8201"
       x="244.07526"
       y="85.75135"
       id="rect1028" /></g></clipPath><clipPath
   clipPathUnits="userSpaceOnUse"
   id="clipPath1032"><g
     id="g1036"><rect
       height="2384.24"
       width="3370.8201"
       x="244.07526"
       y="85.75135"
       id="rect1034" /></g></clipPath><clipPath
   clipPathUnits="userSpaceOnUse"
   id="clipPath1038"><g
     id="g1042"><rect
       height="2384.24"
       width="3370.8201"
       x="244.07526"
       y="85.75135"
       id="rect1040" /></g></clipPath><clipPath
   clipPathUnits="userSpaceOnUse"
   id="clipPath1044"><g
     id="g1048"><rect
       height="2384.24"
       width="3370.8201"
       x="244.07526"
       y="85.75135"
       id="rect1046" /></g></clipPath></defs>

<path
   d="m 672.54825,613.68135 c 226.93,-104.994 725.86705,-108.357 1080.40705,-19.43 354.53,88.927 123.01,303.025 337.72,375.138 214.7,72.11305 395.0199,-248.099 521.1,-86.685 126.07,161.41405 261.69,439.02705 -16.81,732.33705 -278.51,293.31 -694.55,442.4 -1097.22,440.9 -402.663,-1.49 -350.324,-186.44 -513.45405,-446.87 -163.13,-260.43 -61.126,-346 -139.062,-594.845 -77.936,-248.84605 -399.612,-295.55105 -172.681,-400.54505 z"
   fill="#d40000"
   fill-opacity="0.75"
   fill-rule="nonzero"
   opacity="1"
   stroke="#000000"
   stroke-linecap="round"
   stroke-linejoin="miter"
   stroke-width="1.245"
   id="path769"
   clip-path="url(#clipPath1044)"
   style="stroke-width:5;stroke-dasharray:none"
   transform="translate(-3.5705045,-7.1180157)" /><path
   d="m 1891.5953,1326.7214 c 0,-8.26 6.38,-14.96 14.25,-14.96 7.87,0 14.25,6.7 14.25,14.96 0,8.26 -6.38,14.96 -14.25,14.96 -7.87,0 -14.25,-6.7 -14.25,-14.96 z"
   fill="#6a884e"
   fill-opacity="0.75"
   fill-rule="nonzero"
   opacity="1"
   stroke="#000000"
   stroke-linecap="round"
   stroke-linejoin="miter"
   stroke-width="1.245"
   id="path779"
   clip-path="url(#clipPath1014)"
   style="stroke:#000000;fill:#000000;fill-opacity:1" /><g
   opacity="1"
   id="g803"
   transform="translate(244.07525,85.751351)"
   clip-path="url(#clipPath990)">
<path
   d="m -487.292,-97.399 c 8.039,-3.092 15.512,-8.884 24.115,-9.275 6.084,-0.276 10.918,5.494 16.695,7.4201 14.852,4.9505 30.841,9.3617 46.375,7.4199 7.181,-0.8977 18.116,-0.554 20.405,-7.4199 2.078,-6.2361 -6.864,-12.4451 -12.985,-14.8401 -9.231,-3.612 -19.767,-1.855 -29.68,-1.855 -6.83,0 -13.603,1.237 -20.405,1.855"
   fill="#d40000"
   fill-opacity="0"
   fill-rule="nonzero"
   stroke="none"
   id="path799" />
<path
   d="m -403.594,-116.375 c -3.735,-0.208 -7.525,-0.041 -11.25,0.125 -4.207,0.187 -8.426,0.148 -12.625,0.469 -5.111,0.39 -10.215,1.146 -15.312,1.687 5.099,-0.51 10.2,-1.234 15.312,-1.594 2.534,-0.177 5.057,-0.169 7.594,-0.218 2.1,-0.041 4.183,-0.139 6.281,-0.219 7.002,-0.268 14.205,-0.384 20.844,2.187 4.31,1.67 9.282,4.763 11.812,8.719 1.859,2.906 1.843,6.1643 -0.718,8.6565 -0.602,0.5854 -1.325,1.0728 -2.063,1.4687 -1.37,0.7353 -2.891,1.2054 -4.406,1.5313 -3.34,0.7184 -6.764,0.9001 -10.156,1.2187 -1.917,0.1801 -3.826,0.4563 -5.75,0.5626 -2.592,0.1431 -5.191,0.1223 -7.781,-0.0313 -10.52,-0.6235 -20.799,-3.4176 -30.782,-6.6563 -2.727,-0.8848 -5.338,-1.7482 -7.812,-3.2192 -3.711,-2.204 -7.468,-5.374 -12,-5.531 -2.796,-0.097 -5.603,0.652 -8.219,1.563 -5.854,2.039 -11.121,5.435 -16.875,7.7185 -0.291,0.1158 -0.428,0.4594 -0.312,0.75 0.115,0.2906 0.428,0.4283 0.718,0.3125 5.084,-2.032 9.792,-4.903 14.844,-7 3.059,-1.27 6.456,-2.386 9.812,-2.281 4.318,0.135 7.96,3.242 11.5,5.312 2.55,1.4913 5.258,2.364 8.063,3.2502 10.087,3.1875 20.421,5.9204 31.031,6.4688 2.617,0.1353 5.259,0.1324 7.875,-0.0312 1.932,-0.1208 3.827,-0.399 5.75,-0.5938 3.733,-0.378 7.55,-0.5465 11.188,-1.5312 1.511,-0.409 2.997,-0.9819 4.312,-1.8438 3.784,-2.4795 4.503,-6.598 2.094,-10.313 -2.599,-4.006 -7.605,-7.142 -12,-8.812 -3.549,-1.349 -7.233,-1.917 -10.969,-2.125 z"
   fill="#000000"
   stroke="none"
   id="path801" />
</g>


<path
   style="fill:#000000;fill-opacity:0.75;stroke:#000000;stroke-width:4;stroke-dasharray:none;stroke-opacity:1"
   d="m 1145.0123,891.07935 -40.843,504.19205"
   id="path1151" /><path
   style="fill:#000000;fill-opacity:0.75;stroke:#000000;stroke-width:4;stroke-dasharray:none;stroke-opacity:1;marker-end:"
   d="m 2137.3852,1593.0314 414.7801,-207.08"
   id="path1153" /><path
   style="fill:none;fill-opacity:1;stroke:#008000;stroke-width:4;stroke-dasharray:none;stroke-opacity:1"
   d="m 1145.0123,891.07935 c 423.0505,300.12175 889.2468,473.46735 1407.153,494.87205"
   id="path1155"
   sodipodi:nodetypes="cc" /><path
   style="fill:none;fill-opacity:1;stroke:#008000;stroke-width:4;stroke-dasharray:none;stroke-opacity:1"
   d="M 2137.3852,1593.0314 C 1865.519,1367.1508 1507.8218,1330.5415 1104.1693,1395.2714"
   id="path1157"
   sodipodi:nodetypes="cc" /><path
   style="fill:none;fill-opacity:1;stroke:#000000;stroke-width:4;stroke-dasharray:none;stroke-opacity:1;marker-end:url(#Arrow5)"
   d="m 1273.752,659.42565 216.8188,267.08266"
   id="path1262" /><path
   style="fill:none;fill-opacity:1;stroke:#000000;stroke-width:4;stroke-dasharray:none;stroke-opacity:1;marker-end:url(#Arrow5)"
   d="m 1661.2122,672.41651 105.877,349.41749"
   id="path1264" /><path
   style="fill:none;fill-opacity:1;stroke:#000000;stroke-width:4;stroke-dasharray:none;stroke-opacity:1;marker-end:url(#marker1511)"
   d="M 2431.6679,996.25328 2088.4871,1165.0959"
   id="path1266" /><path
   style="fill:none;fill-opacity:1;stroke:#000000;stroke-width:4;stroke-dasharray:none;stroke-opacity:1;marker-end:url(#Arrow5)"
   d="m 1856.3861,824.3231 49.2122,380.1749"
   id="path1268" /><path
   style="fill:none;fill-opacity:1;stroke:#000000;stroke-width:4;stroke-dasharray:none;stroke-opacity:1;marker-end:url(#Arrow5)"
   d="m 2039.9272,1015.1215 -63.4383,193.4365"
   id="path1270" /><path
   style="fill:none;fill-opacity:1;stroke:#000000;stroke-width:4;stroke-dasharray:none;stroke-opacity:1;marker-end:url(#Arrow5)"
   d="M 866.77785,842.48498 1071.5205,964.07974"
   id="path1272" /><path
   style="fill:none;fill-opacity:1;stroke:#000000;stroke-width:4;stroke-dasharray:none;stroke-opacity:1;marker-end:url(#marker1557)"
   d="M 899.39582,1377.5675 1082.324,1355.3902"
   id="path1274" /><path
   style="fill:none;fill-opacity:1;stroke:#000000;stroke-width:4;stroke-dasharray:none;stroke-opacity:1;marker-end:url(#Arrow5)"
   d="m 934.3234,1208.558 h 149.1763"
   id="path1276" /><path
   style="fill:none;fill-opacity:1;stroke:#000000;stroke-width:4;stroke-dasharray:none;stroke-opacity:1;marker-end:url(#marker1511)"
   d="m 2633.1678,1470.7011 -129.0019,-20.1667"
   id="path1278" /><path
   style="fill:none;fill-opacity:1;stroke:#000000;stroke-width:4;stroke-dasharray:none;stroke-opacity:1;marker-end:url(#marker1511)"
   d="m 2500.2346,1623.6977 -122.4893,-83.0311"
   id="path1280" /><path
   style="fill:none;fill-opacity:1;stroke:#000000;stroke-width:4;stroke-dasharray:none;stroke-opacity:1;marker-end:url(#marker1511)"
   d="m 2685.7886,1225.5252 -193.7121,116.1562"
   id="path1282" /><path
   style="fill:none;fill-opacity:1;stroke:#000000;stroke-width:4;stroke-dasharray:none;stroke-opacity:1;marker-end:url(#marker1557)"
   d="m 1499.8753,1925.8158 217.2331,-376.8567"
   id="path1284" /><path
   style="fill:none;fill-opacity:1;stroke:#000000;stroke-width:4;stroke-dasharray:none;stroke-opacity:1;marker-end:url(#marker1557)"
   d="M 1074.4153,1695.3898 1520.833,1449.3586"
   id="path1286" /><path
   style="fill:none;fill-opacity:1;stroke:#000000;stroke-width:4;stroke-dasharray:none;stroke-opacity:1;marker-end:url(#marker1557)"
   d="m 1955.468,1903.9527 -24.0256,-353.1109"
   id="path1288" /><path
   style="fill:none;fill-opacity:1;stroke:#000000;stroke-width:4;stroke-dasharray:none;stroke-opacity:1;marker-end:url(#marker1511)"
   d="M 2304.3847,1767.3823 2184.9363,1624.5332"
   id="path1290" /><path
   style="fill:none;fill-opacity:1;stroke:#000000;stroke-width:4;stroke-dasharray:none;stroke-opacity:1;marker-end:url(#marker1801)"
   d="m 1280.9302,1101.7695 259.7372,90.9983"
   id="path1719" /><path
   style="fill:none;fill-opacity:1;stroke:#000000;stroke-width:4;stroke-dasharray:none;stroke-opacity:1;marker-end:url(#marker1511)"
   d="m 1327.9846,1326.7214 362.8792,-20.6696"
   id="path1739" /><path
   style="fill:none;fill-opacity:1;stroke:#000000;stroke-width:4;stroke-dasharray:none;stroke-opacity:1;marker-end:url(#marker1511)"
   d="M 2147.8159,1532.6002 1944.4177,1377.9351"
   id="path1759" /><path
   style="fill:none;fill-opacity:1;stroke:#000000;stroke-width:4;stroke-dasharray:none;stroke-opacity:1;marker-end:url(#marker1511)"
   d="m 2344.7753,1412.6423 -340.05,-63.4565"
   id="path1779" /></svg>
