<?xml version="1.0" encoding="UTF-8" standalone="no"?>
<!-- Created with Inkscape (http://www.inkscape.org/) -->

<svg
   width="210mm"
   height="297mm"
   viewBox="0 0 210 297"
   version="1.1"
   id="svg5"
   inkscape:version="1.2.1 (9c6d41e410, 2022-07-14)"
   sodipodi:docname="homotopy_equivalence.svg"
   xmlns:inkscape="http://www.inkscape.org/namespaces/inkscape"
   xmlns:sodipodi="http://sodipodi.sourceforge.net/DTD/sodipodi-0.dtd"
   xmlns="http://www.w3.org/2000/svg"
   xmlns:svg="http://www.w3.org/2000/svg">
  <sodipodi:namedview
     id="namedview7"
     pagecolor="#ffffff"
     bordercolor="#000000"
     borderopacity="0.25"
     inkscape:showpageshadow="2"
     inkscape:pageopacity="0.0"
     inkscape:pagecheckerboard="0"
     inkscape:deskcolor="#d1d1d1"
     inkscape:document-units="mm"
     showgrid="false"
     inkscape:zoom="1.0074671"
     inkscape:cx="402.49455"
     inkscape:cy="560.81238"
     inkscape:window-width="1888"
     inkscape:window-height="1008"
     inkscape:window-x="13"
     inkscape:window-y="53"
     inkscape:window-maximized="1"
     inkscape:current-layer="layer1" />
  <defs
     id="defs2" />
  <g
     inkscape:label="Layer 1"
     inkscape:groupmode="layer"
     id="layer1">
    <circle
       style="font-variation-settings:normal;opacity:1;vector-effect:none;fill:none;fill-opacity:0.74902;fill-rule:evenodd;stroke:#000000;stroke-width:1.31383;stroke-linecap:butt;stroke-linejoin:miter;stroke-miterlimit:4;stroke-dasharray:none;stroke-dashoffset:0;stroke-opacity:1;-inkscape-stroke:none;stop-color:#000000;stop-opacity:1"
       id="path1002"
       cx="44.603428"
       cy="148.38608"
       r="35.693558" />
    <circle
       style="font-variation-settings:normal;vector-effect:none;fill:none;fill-opacity:0.74902;fill-rule:evenodd;stroke:#000000;stroke-width:1.31383;stroke-linecap:butt;stroke-linejoin:miter;stroke-miterlimit:4;stroke-dasharray:none;stroke-dashoffset:0;stroke-opacity:1;-inkscape-stroke:none;stop-color:#000000"
       id="path1002-3"
       cx="153.3723"
       cy="148.5"
       r="35.693558" />
    <circle
       style="font-variation-settings:normal;vector-effect:none;fill:none;fill-opacity:0.74902;fill-rule:evenodd;stroke:#000000;stroke-width:0.76075;stroke-linecap:butt;stroke-linejoin:miter;stroke-miterlimit:4;stroke-dasharray:none;stroke-dashoffset:0;stroke-opacity:1;-inkscape-stroke:none;stop-color:#000000"
       id="path1002-6"
       cx="153.3723"
       cy="148.5"
       r="20.667715" />
    <path
       style="fill:#d40000;fill-opacity:0.74901962;stroke:#000000;stroke-width:3.88698;stroke-opacity:1"
       d="m 567.26421,692.70256 c -42.46491,-5.39579 -76.45401,-26.31319 -98.72807,-60.75873 -17.06757,-26.39398 -24.02368,-60.52495 -18.84641,-92.47209 6.60537,-40.7595 34.14845,-77.76963 71.63698,-96.2599 19.49846,-9.61711 35.88046,-13.37157 58.34485,-13.37157 17.14009,0 26.10244,1.34219 40.69612,6.09459 46.42579,15.11845 81.55928,55.85971 89.28571,103.53688 9.19995,56.76975 -18.94038,112.83736 -69.62965,138.73212 -12.40389,6.33657 -21.57206,9.59693 -34.31295,12.20228 -9.82159,2.00839 -30.8353,3.26354 -38.44658,2.29642 z m 32.75541,-54.13095 c 22.93635,-5.76664 41.55011,-21.35749 52.05723,-43.60302 5.77862,-12.23442 7.00892,-18.37102 6.94736,-34.6525 -0.0513,-13.56268 -0.24021,-14.93623 -3.27663,-23.82212 -9.11765,-26.68218 -29.13009,-45.44206 -56.22425,-52.70524 -6.03236,-1.61711 -10.80324,-2.12868 -19.85177,-2.12868 -23.53201,0 -42.80584,8.33585 -58.79546,25.42881 -7.82417,8.36407 -13.23927,17.57855 -17.28055,29.40511 -3.03643,8.88589 -3.22535,10.25944 -3.27663,23.82212 -0.0627,16.57506 1.16442,22.47792 7.38547,35.5274 16.57964,34.778 54.36861,52.26863 92.31523,42.72812 z"
       id="path1603"
       transform="scale(0.26458333)" />
  </g>
</svg>
